<?xml version="1.0" encoding="utf-8"?>
<!-- Generator: Adobe Illustrator 24.1.0, SVG Export Plug-In . SVG Version: 6.00 Build 0)  -->
<svg version="1.1" xmlns="http://www.w3.org/2000/svg" xmlns:xlink="http://www.w3.org/1999/xlink" x="0px" y="0px"
	 viewBox="0 0 450 450" style="enable-background:new 0 0 450 450;" xml:space="preserve">
<style type="text/css">
	.st0{fill:#ED7220;}
	.st1{fill:#CAB286;}
	.st2{fill:#FFFFFF;}
	.st3{fill:#80624C;}
	.st4{fill:#1AA820;}
</style>
<g id="bg">
</g>
<g id="flowercaanabis">
	<path class="st0" d="M225,429c-112.39,0-203.88-91.37-204-203.78C20.88,112.73,112.3,21.12,224.79,21c0.07,0,0.15,0,0.22,0
		c112.39,0,203.88,91.37,204,203.78l0,0c0.12,112.48-91.3,204.09-203.78,204.21C225.15,429,225.07,429,225,429z M225,34
		c-0.07,0-0.13,0-0.2,0C119.48,34.11,33.89,119.88,34,225.2C34.11,330.45,119.78,416,225,416c0.07,0,0.13,0,0.2,0
		c105.32-0.11,190.91-85.88,190.8-191.2l0,0C415.89,119.55,330.22,34,225,34z"/>
	<g>
		<path class="st1" d="M348.68,166.32c-37.97,20.4-34.86-20.86-34.86-20.86c-33.84-1.52-15.87-31.22-15.87-31.22
			c-22.06-5.36-28.22-19.97-29.51-31.31c-53.93,1.58-97.1,46.43-96.96,101.41c0.15,55.89,44.99,101.07,100.17,100.93
			c55.14-0.14,99.72-45.51,99.63-101.34C359.78,186.76,348.68,166.32,348.68,166.32z"/>
		<path class="st2" d="M271.38,286.28c-55.52,0-100.76-45.67-100.9-101.93c-0.07-26.82,10.04-52.18,28.48-71.42
			c18.41-19.21,43.07-30.21,69.45-30.99l0.92-0.03l0.1,0.91c1.24,11.01,7.24,25.22,28.75,30.45l1.32,0.32l-0.71,1.17
			c-0.08,0.13-7.76,13.04-3.14,21.69c2.62,4.89,8.74,7.59,18.2,8.02l1.03,0.05l-0.08,1.03c-0.01,0.17-1.18,17.33,8.08,23.34
			c5.68,3.69,14.2,2.53,25.31-3.44l0.88-0.47l0.48,0.87c0.11,0.2,10.88,19.73,21.49,17.12l1.24-0.3l0,1.27
			c0.09,56.28-45.06,102.19-100.63,102.34C271.56,286.28,271.47,286.28,271.38,286.28z M267.56,83.97
			c-25.51,0.98-49.33,11.73-67.16,30.34c-18.08,18.87-27.99,43.74-27.92,70.04c0.14,55.15,44.49,99.93,98.9,99.93
			c0.09,0,0.17,0,0.26,0c54.08-0.14,98.08-44.5,98.63-99.14c-10.37,1.23-19.75-13.64-21.99-17.48c-11.4,5.94-20.31,6.92-26.49,2.9
			c-8.97-5.83-9.16-20.16-9.03-24.15c-9.65-0.61-16-3.64-18.87-9.02c-4.34-8.13,0.65-18.94,2.54-22.49
			C275.42,109.3,269.07,95.24,267.56,83.97z"/>
	</g>
	<g>
		<circle class="st3" cx="195.07" cy="150.83" r="11.44"/>
		<path class="st2" d="M195.07,163.77c-7.12,0-12.92-5.78-12.94-12.91c-0.02-7.14,5.77-12.96,12.91-12.97
			c3.46-0.01,6.71,1.33,9.16,3.77c2.45,2.44,3.8,5.68,3.81,9.14s-1.33,6.71-3.77,9.16s-5.68,3.81-9.14,3.81
			C195.09,163.77,195.08,163.77,195.07,163.77z M195.07,140.89c-0.01,0-0.02,0-0.03,0c-5.48,0.01-9.93,4.49-9.91,9.97
			c0.01,5.47,4.47,9.91,9.94,9.91c0.01,0,0.02,0,0.03,0c2.66-0.01,5.15-1.05,7.02-2.93s2.9-4.38,2.89-7.04
			C204.99,145.33,200.54,140.89,195.07,140.89z"/>
	</g>
	<g>
		
			<ellipse transform="matrix(1 -2.622335e-03 2.622335e-03 1 -0.4239 0.6512)" class="st3" cx="248.11" cy="161.97" rx="18.05" ry="16.92"/>
		<path class="st2" d="M248.1,180.39c-5.18,0-10.06-1.89-13.74-5.32c-3.72-3.47-5.78-8.1-5.79-13.04
			c-0.03-10.16,8.72-18.44,19.5-18.47c0.02,0,0.04,0,0.05,0c10.75,0,19.51,8.23,19.54,18.37l0,0c0.01,4.94-2.02,9.58-5.73,13.07
			c-3.68,3.47-8.57,5.38-13.77,5.4C248.14,180.39,248.12,180.39,248.1,180.39z M248.11,146.55c-0.02,0-0.03,0-0.05,0
			c-9.12,0.02-16.53,6.96-16.51,15.46c0.01,4.1,1.73,7.96,4.84,10.86c3.13,2.91,7.28,4.52,11.7,4.52c0.02,0,0.03,0,0.05,0
			c4.44-0.01,8.6-1.64,11.72-4.58c3.09-2.92,4.79-6.78,4.78-10.88l0,0C264.63,153.44,257.22,146.55,248.11,146.55z"/>
	</g>
	<g>
		<circle class="st3" cx="229.79" cy="241.62" r="18.53"/>
		<path class="st2" d="M229.79,261.65c-5.33,0-10.34-2.07-14.12-5.83c-3.79-3.77-5.89-8.8-5.9-14.15
			c-0.01-5.35,2.06-10.39,5.83-14.18c3.77-3.79,8.8-5.89,14.15-5.9c0.02,0,0.04,0,0.05,0c11.02,0,20,8.95,20.03,19.98l0,0
			c0.03,11.04-8.93,20.05-19.98,20.08C229.82,261.65,229.8,261.65,229.79,261.65z M229.79,224.59c-0.02,0-0.03,0-0.05,0
			c-4.55,0.01-8.82,1.79-12.03,5.02c-3.21,3.22-4.97,7.51-4.96,12.05s1.79,8.82,5.02,12.03c3.21,3.2,7.48,4.96,12.01,4.96
			c0.02,0,0.03,0,0.05,0c4.55-0.01,8.82-1.79,12.03-5.02c3.21-3.22,4.97-7.51,4.96-12.05l0,0
			C246.79,232.2,239.16,224.59,229.79,224.59z"/>
	</g>
	<g>
		<circle class="st3" cx="295.15" cy="214.64" r="20.14"/>
		<path class="st2" d="M295.14,236.28c-5.76,0-11.18-2.24-15.26-6.3c-4.1-4.08-6.36-9.51-6.38-15.29
			c-0.03-11.93,9.65-21.67,21.58-21.7c0.02,0,0.04,0,0.06,0c11.91,0,21.61,9.67,21.64,21.58l0,0c0.03,11.93-9.65,21.67-21.58,21.7
			C295.18,236.28,295.16,236.28,295.14,236.28z M295.15,196c-0.02,0-0.03,0-0.05,0c-10.28,0.03-18.62,8.41-18.59,18.69
			c0.03,10.26,8.38,18.59,18.64,18.59c0.02,0,0.03,0,0.05,0c10.28-0.03,18.62-8.41,18.59-18.69C313.76,204.33,305.4,196,295.15,196z
			"/>
	</g>
	<g>
		<circle class="st3" cx="347.56" cy="232.39" r="10.31"/>
		<path class="st2" d="M347.56,244.2c-3.14,0-6.1-1.22-8.33-3.44c-2.24-2.23-3.47-5.19-3.48-8.34s1.21-6.12,3.44-8.36
			c2.23-2.24,5.19-3.47,8.34-3.48c6.48,0,11.83,5.27,11.84,11.78l0,0c0.01,3.16-1.21,6.12-3.44,8.36c-2.23,2.24-5.19,3.47-8.34,3.48
			C347.58,244.2,347.57,244.2,347.56,244.2z M347.56,223.57c-0.01,0-0.02,0-0.02,0c-2.35,0.01-4.56,0.93-6.22,2.6
			c-1.66,1.67-2.57,3.88-2.56,6.24s0.93,4.56,2.6,6.22c1.66,1.65,3.87,2.56,6.21,2.56c0.01,0,0.02,0,0.02,0
			c2.35-0.01,4.56-0.93,6.22-2.6c1.66-1.67,2.57-3.88,2.56-6.24C356.36,227.51,352.41,223.57,347.56,223.57z"/>
	</g>
	<g>
		<path class="st4" d="M199.69,329.57c0,0,10.06-22.8,10.39-24.81h-2.35c0,0,4.36-6.04,5.03-7.71h-2.68c0,0,4.69-5.7,4.69-7.71
			h-3.02c0,0,3.69-6.04,4.02-9.05h-2.35c0,0,2.68-4.69,2.35-8.72h-2.35c0,0,3.35-5.7,4.02-9.72h-3.69c0,0,4.02-5.36,3.02-9.05h-4.02
			c0,0,3.02-7.04,2.01-10.06h-3.02c0,0,1.34-5.36,0.34-7.38h-3.35c0,0,1.34-5.7,1.01-8.72l-2.68,1.01l-4.02-17.1l-4.36,16.09
			l-3.35-1.01c0,0-1.01,6.71,0.67,9.39l-3.35-0.67c0,0-1.68,5.36,0,8.38l-3.35-1.01c0,0-1.68,5.03,1.34,9.05h-4.02
			c0,0-1.34,7.71,2.35,10.39l-3.69-0.34c0,0-0.34,6.71,3.02,10.73l-3.02-0.34c0,0,1.01,6.04,2.68,8.05l-2.68-0.67
			c0,0-0.67,4.69,4.36,10.06l-4.36-0.67c0,0-0.34,4.36,5.36,8.05l-3.69,0.34c0,0,1.01,5.7,4.69,8.05h-2.01
			C189.63,304.43,197.68,329.91,199.69,329.57z"/>
		<path class="st4" d="M199.72,330.25c0,0,21.68-6.77,23.27-7.74l-1.41-1.61c0,0,6.76-0.63,8.31-1.17l-1.61-1.84
			c0,0,6.73-0.2,8.11-1.4l-1.81-2.07c0,0,6.35-1.09,8.63-2.67l-1.41-1.61c0,0,4.83-0.97,7.39-3.62l-1.41-1.61
			c0,0,5.92-1.12,9.09-3.07l-2.21-2.53c0,0,6.1-0.45,8.02-3.36l-2.41-2.76c0,0,6.64-2.15,8.11-4.65l-1.81-2.07
			c0,0,4.49-2.3,5.27-4.19l-2.01-2.3c0,0,4.72-2.5,6.59-4.54l-2.3-1.24l9.33-13.02l-13.66,6.66l-1.32-2.9c0,0-5.21,3.33-6.04,6.09
			l-1.55-2.7c0,0-4.69,2.07-5.75,5.03l-1.32-2.9c0,0-4.46,1.86-5.41,6.35l-2.41-2.76c0,0-6.1,3.7-5.73,7.84l-1.98-2.73
			c0,0-4.8,3.79-5.56,8.51l-1.58-2.27c0,0-3.54,4.31-3.92,6.67l-1.15-2.24c0,0-3.62,2.35-4.29,9.02l-2.15-3.39
			c0,0-3.19,2.38-2.31,8.51l-2.44-2.33c0,0-3.31,4.11-2.71,8.05l-1.21-1.38C210.96,308.26,198.29,329.07,199.72,330.25z"/>
		<path class="st4" d="M199.7,329.19c0,0-10.5-20.14-11.74-21.53l-1.34,1.67c0,0-1.81-6.54-2.63-7.97l-1.53,1.91
			c0,0-1.38-6.59-2.82-7.73l-1.72,2.15c0,0-2.2-6.06-4.15-8.02l-1.34,1.67c0,0-1.81-4.58-4.87-6.63l-1.34,1.67
			c0,0-2.15-5.63-4.63-8.4l-2.1,2.63c0,0-1.53-5.92-4.73-7.3l-2.29,2.86c0,0-3.29-6.16-6.01-7.16l-1.72,2.15
			c0,0-3.06-4.01-5.06-4.44l-1.91,2.39c0,0-3.29-4.2-5.63-5.68l-0.81,2.48l-14.46-6.87l8.97,12.27l-2.63,1.81
			c0,0,4.2,4.53,7.06,4.87l-2.39,2c0,0,2.86,4.25,5.97,4.77l-2.63,1.81c0,0,2.63,4.06,7.21,4.2l-2.29,2.86c0,0,4.73,5.35,8.74,4.25
			l-2.34,2.43c0,0,4.58,4.06,9.36,3.96l-1.96,1.96c0,0,4.87,2.72,7.26,2.67l-2,1.53c0,0,2.96,3.15,9.64,2.62l-2.96,2.72
			c0,0,2.91,2.72,8.78,0.76l-1.86,2.82c0,0,4.63,2.53,8.4,1.24l-1.15,1.43C176.07,322.03,198.8,330.81,199.7,329.19z"/>
		<path class="st4" d="M199.58,330.83c0,0,15.88,8.13,17.31,8.47l0.12-1.61c0,0,4.12,3.32,5.29,3.87l0.14-1.84
			c0,0,3.86,3.53,5.3,3.64l0.15-2.07c0,0,4.15,2.86,6.3,3.25l0.12-1.61c0,0,3.24,2.09,6.15,2.08l0.12-1.61c0,0,3.93,2.61,6.79,3.29
			l0.19-2.53c0,0,3.65,3.05,6.35,2.56l0.21-2.76c0,0,4.91,2.45,7.13,1.92l0.15-2.07c0,0,3.79,1.21,5.29,0.63l0.17-2.3
			c0,0,4.03,1.23,6.22,1.16l-0.59-1.9l12.5-1.84l-11.35-3.86l0.9-2.25c0,0-4.77-1.05-6.79-0.04l0.65-2.27c0,0-3.77-1.44-6.03-0.45
			l0.9-2.25c0,0-3.53-1.42-6.58,0.43l0.21-2.76c0,0-5.48-1.34-7.59,1.05l0.43-2.51c0,0-4.8-0.59-7.87,1.5l0.4-2.05
			c0,0-4.39,0.37-5.92,1.41l0.62-1.81c0,0-3.34-0.71-7.46,2.45l0.71-2.96c0,0-3.12-0.46-6.06,3.25l-0.05-2.55
			c0,0-4.15,0.38-6.03,2.79l0.1-1.38C218.18,325.27,199.44,329.43,199.58,330.83z"/>
		<path class="st4" d="M200.43,329.64c0,0-16.7-4.46-18.13-4.51l0.16,1.45c0,0-4.53-2.23-5.76-2.51l0.18,1.65
			c0,0-4.32-2.46-5.73-2.31l0.2,1.86c0,0-4.49-1.81-6.63-1.79l0.16,1.45c0,0-3.48-1.3-6.28-0.78l0.16,1.45c0,0-4.23-1.63-7.1-1.74
			l0.25,2.27c0,0-4.04-2.07-6.56-1.17l0.27,2.48c0,0-5.15-1.32-7.2-0.47l0.2,1.86c0,0-3.86-0.42-5.21,0.36l0.22,2.07
			c0,0-4.1-0.39-6.19,0.05l0.89,1.58l-11.75,3.79l11.6,1.46l-0.48,2.14c0,0,4.78,0.11,6.55-1.13l-0.25,2.12c0,0,3.88,0.62,5.89-0.64
			l-0.48,2.14c0,0,3.65,0.65,6.27-1.52l0.27,2.48c0,0,5.51,0.24,7.15-2.24l0.01,2.3c0,0,4.73-0.31,7.34-2.68l-0.03,1.89
			c0,0,4.17-1.08,5.47-2.27l-0.29,1.71c0,0,3.34,0.05,6.78-3.46l-0.18,2.74c0,0,3.09-0.13,5.29-3.92l0.48,2.25
			c0,0,3.94-1.06,5.34-3.51l0.13,1.24C183.43,337.76,200.8,330.85,200.43,329.64z"/>
		<path class="st4" d="M200.23,331.69c0,0,3.3,7.68,3.72,8.22l0.53-0.57c0,0,0.49,2.45,0.75,2.99l0.61-0.65c0,0,0.33,2.45,0.82,2.91
			l0.69-0.74c0,0,0.64,2.28,1.3,3.06l0.53-0.57c0,0,0.54,1.73,1.6,2.57l0.53-0.57c0,0,0.63,2.12,1.47,3.21l0.84-0.9
			c0,0,0.4,2.21,1.53,2.81l0.92-0.98c0,0,1.04,2.35,2.01,2.79l0.69-0.74c0,0,1.01,1.56,1.73,1.77l0.76-0.82c0,0,1.09,1.63,1.91,2.24
			l0.36-0.88l5.11,2.93l-2.95-4.75l1.01-0.59c0,0-1.42-1.78-2.46-1.99l0.93-0.66c0,0-0.93-1.64-2.06-1.92l1.01-0.59
			c0,0-0.85-1.56-2.53-1.75l0.92-0.98c0,0-1.59-2.09-3.08-1.81l0.92-0.82c0,0-1.57-1.62-3.32-1.72l0.77-0.66
			c0,0-1.71-1.14-2.58-1.19l0.78-0.5c0,0-1-1.24-3.46-1.24l1.16-0.91c0,0-0.99-1.08-3.2-0.53l0.76-0.98c0,0-1.63-1.06-3.04-0.7
			l0.46-0.49C208.69,334.99,200.6,331.12,200.23,331.69z"/>
		<path class="st4" d="M200.05,330.31c0,0-7.68,3.3-8.22,3.72l0.57,0.53c0,0-2.45,0.49-2.99,0.75l0.65,0.61c0,0-2.45,0.33-2.91,0.82
			l0.74,0.69c0,0-2.28,0.64-3.06,1.3l0.57,0.53c0,0-1.73,0.54-2.57,1.6l0.57,0.53c0,0-2.12,0.63-3.21,1.47l0.9,0.84
			c0,0-2.21,0.4-2.81,1.53l0.98,0.92c0,0-2.35,1.04-2.79,2.01l0.74,0.69c0,0-1.56,1.01-1.77,1.73l0.82,0.76c0,0-1.63,1.09-2.24,1.91
			l0.88,0.36l-2.93,5.11l4.75-2.95l0.59,1.01c0,0,1.78-1.42,1.99-2.46l0.66,0.93c0,0,1.64-0.93,1.92-2.06l0.59,1.01
			c0,0,1.56-0.85,1.75-2.53l0.98,0.92c0,0,2.09-1.59,1.81-3.08l0.82,0.92c0,0,1.62-1.57,1.72-3.32l0.66,0.77
			c0,0,1.14-1.71,1.19-2.58l0.5,0.78c0,0,1.24-1,1.24-3.46l0.91,1.16c0,0,1.08-0.99,0.53-3.2l0.98,0.76c0,0,1.06-1.63,0.7-3.04
			l0.49,0.46C196.75,338.77,200.62,330.68,200.05,330.31z"/>
	</g>
</g>
</svg>
