<?xml version="1.0" encoding="utf-8"?>
<!-- Generator: Adobe Illustrator 24.1.0, SVG Export Plug-In . SVG Version: 6.00 Build 0)  -->
<svg version="1.1" xmlns="http://www.w3.org/2000/svg" xmlns:xlink="http://www.w3.org/1999/xlink" x="0px" y="0px"
	 viewBox="0 0 450 450" style="enable-background:new 0 0 450 450;" xml:space="preserve">
<style type="text/css">
	.st0{fill:#ED7220;}
	.st1{fill:none;stroke:#606060;stroke-width:12;stroke-linecap:round;stroke-linejoin:round;stroke-miterlimit:10;}
	.st2{fill:#1AA820;}
</style>
<g id="bg">
</g>
<g id="flowercaanabis">
	<g>
		<path class="st0" d="M225,429c-112.39,0-203.88-91.37-204-203.78C20.88,112.73,112.3,21.12,224.79,21c0.07,0,0.15,0,0.22,0
			c112.39,0,203.88,91.37,204,203.78l0,0c0.12,112.48-91.3,204.09-203.78,204.21C225.15,429,225.07,429,225,429z M225,34
			c-0.07,0-0.13,0-0.2,0C119.48,34.11,33.89,119.88,34,225.2C34.11,330.45,119.78,416,225,416c0.07,0,0.13,0,0.2,0
			c105.32-0.11,190.91-85.88,190.8-191.2l0,0C415.89,119.55,330.22,34,225,34z"/>
		<g>
			<g>
				<g>
					<path class="st1" d="M291.24,218.15c0,0,28.34,47.66-11.59,76"/>
					<path class="st1" d="M246.48,85.15l-68.71,122.78c-11.01,19.68-14.74,42.72-9.95,64.76c6,27.59,25.72,57.17,82.52,57.86
						c0,0,60.31-1.8,69.94-62.21c3.3-20.71-0.57-41.93-10.51-60.4l-49.77-92.51"/>
				</g>
			</g>
			<g>
				<path class="st2" d="M195.71,338.28c0,0,8.85-20.06,9.15-21.83h-2.07c0,0,3.84-5.31,4.43-6.79h-2.36c0,0,4.13-5.02,4.13-6.79
					h-2.66c0,0,3.25-5.31,3.54-7.97h-2.07c0,0,2.36-4.13,2.07-7.67h-2.07c0,0,2.95-5.02,3.54-8.56h-3.25c0,0,3.54-4.72,2.66-7.97
					h-3.54c0,0,2.66-6.2,1.77-8.85h-2.66c0,0,1.18-4.72,0.3-6.49h-2.95c0,0,1.18-5.02,0.89-7.67l-2.36,0.89l-3.54-15.05l-3.84,14.16
					l-2.95-0.89c0,0-0.89,5.9,0.59,8.26l-2.95-0.59c0,0-1.48,4.72,0,7.38l-2.95-0.89c0,0-1.48,4.43,1.18,7.97h-3.54
					c0,0-1.18,6.79,2.07,9.15l-3.25-0.3c0,0-0.3,5.9,2.66,9.44l-2.66-0.3c0,0,0.89,5.31,2.36,7.08l-2.36-0.59
					c0,0-0.59,4.13,3.84,8.85l-3.84-0.59c0,0-0.3,3.84,4.72,7.08l-3.25,0.3c0,0,0.89,5.02,4.13,7.08h-1.77
					C186.86,316.15,193.94,338.57,195.71,338.28z"/>
				<path class="st2" d="M195.74,338.87c0,0,19.08-5.95,20.47-6.81l-1.24-1.42c0,0,5.95-0.55,7.31-1.03l-1.42-1.62
					c0,0,5.92-0.17,7.14-1.23l-1.59-1.82c0,0,5.59-0.96,7.59-2.35l-1.24-1.42c0,0,4.25-0.86,6.5-3.18l-1.24-1.42
					c0,0,5.21-0.98,8-2.7l-1.95-2.23c0,0,5.36-0.4,7.06-2.95l-2.12-2.43c0,0,5.85-1.89,7.14-4.09l-1.59-1.82
					c0,0,3.95-2.02,4.63-3.69l-1.77-2.03c0,0,4.15-2.2,5.8-3.99l-2.02-1.09l8.21-11.45l-12.02,5.86l-1.16-2.56
					c0,0-4.58,2.93-5.32,5.36l-1.36-2.38c0,0-4.13,1.82-5.06,4.42l-1.16-2.56c0,0-3.92,1.64-4.76,5.59l-2.12-2.43
					c0,0-5.37,3.26-5.04,6.9l-1.74-2.4c0,0-4.23,3.34-4.89,7.48l-1.39-2c0,0-3.12,3.79-3.45,5.87l-1.01-1.97
					c0,0-3.19,2.07-3.78,7.94l-1.89-2.99c0,0-2.81,2.1-2.03,7.49l-2.15-2.05c0,0-2.91,3.62-2.38,7.08l-1.06-1.22
					C205.62,319.53,194.47,337.83,195.74,338.87z"/>
				<path class="st2" d="M195.72,337.94c0,0-9.24-17.72-10.33-18.94l-1.18,1.47c0,0-1.6-5.75-2.31-7.01l-1.34,1.68
					c0,0-1.22-5.8-2.48-6.8l-1.51,1.89c0,0-1.93-5.33-3.65-7.06l-1.18,1.47c0,0-1.6-4.03-4.28-5.84l-1.18,1.47
					c0,0-1.89-4.96-4.07-7.39l-1.85,2.31c0,0-1.34-5.21-4.16-6.43l-2.02,2.52c0,0-2.9-5.42-5.29-6.3l-1.51,1.89
					c0,0-2.69-3.53-4.45-3.91l-1.68,2.1c0,0-2.9-3.7-4.96-5l-0.71,2.18l-12.73-6.05l7.9,10.79l-2.31,1.6c0,0,3.7,3.99,6.22,4.28
					l-2.1,1.76c0,0,2.52,3.74,5.25,4.2l-2.31,1.6c0,0,2.31,3.57,6.34,3.7l-2.02,2.52c0,0,4.16,4.7,7.69,3.74l-2.06,2.14
					c0,0,4.03,3.57,8.23,3.49l-1.72,1.72c0,0,4.28,2.39,6.38,2.35l-1.76,1.34c0,0,2.6,2.77,8.48,2.31l-2.6,2.39
					c0,0,2.56,2.39,7.73,0.67l-1.64,2.48c0,0,4.07,2.23,7.39,1.09l-1.01,1.26C174.93,331.64,194.92,339.37,195.72,337.94z"/>
				<path class="st2" d="M195.61,339.38c0,0,13.97,7.16,15.23,7.45l0.11-1.42c0,0,3.62,2.92,4.65,3.4l0.12-1.62
					c0,0,3.39,3.11,4.67,3.2l0.14-1.82c0,0,3.65,2.51,5.55,2.86l0.11-1.42c0,0,2.85,1.84,5.41,1.83l0.11-1.42
					c0,0,3.46,2.3,5.97,2.89l0.17-2.23c0,0,3.21,2.68,5.59,2.25l0.18-2.43c0,0,4.32,2.16,6.27,1.69l0.14-1.82
					c0,0,3.33,1.06,4.65,0.55l0.15-2.03c0,0,3.55,1.08,5.47,1.02l-0.52-1.67l11-1.62l-9.99-3.39l0.79-1.98c0,0-4.2-0.92-5.97-0.04
					l0.58-1.99c0,0-3.32-1.27-5.3-0.4l0.79-1.98c0,0-3.11-1.25-5.79,0.38l0.18-2.43c0,0-4.82-1.17-6.68,0.93l0.38-2.21
					c0,0-4.23-0.52-6.92,1.32l0.35-1.81c0,0-3.86,0.32-5.21,1.24l0.55-1.59c0,0-2.94-0.63-6.56,2.16l0.62-2.6
					c0,0-2.74-0.41-5.33,2.86l-0.05-2.24c0,0-3.65,0.34-5.3,2.46l0.09-1.22C211.98,334.49,195.49,338.15,195.61,339.38z"/>
				<path class="st2" d="M196.36,338.34c0,0-14.69-3.93-15.95-3.97l0.14,1.27c0,0-3.99-1.96-5.07-2.21l0.16,1.46
					c0,0-3.8-2.16-5.05-2.03l0.18,1.64c0,0-3.95-1.6-5.83-1.57l0.14,1.27c0,0-3.06-1.14-5.53-0.69l0.14,1.27
					c0,0-3.72-1.44-6.25-1.53l0.22,2c0,0-3.55-1.82-5.78-1.03l0.24,2.18c0,0-4.53-1.16-6.34-0.42l0.18,1.64c0,0-3.4-0.37-4.58,0.31
					l0.2,1.82c0,0-3.6-0.34-5.45,0.04l0.78,1.39l-10.34,3.33l10.21,1.28l-0.42,1.89c0,0,4.21,0.1,5.77-1l-0.22,1.86
					c0,0,3.42,0.55,5.18-0.56l-0.42,1.89c0,0,3.21,0.57,5.52-1.34l0.24,2.18c0,0,4.85,0.21,6.29-1.97l0.01,2.02
					c0,0,4.17-0.27,6.46-2.36l-0.03,1.66c0,0,3.67-0.95,4.82-2l-0.26,1.5c0,0,2.94,0.05,5.96-3.04l-0.16,2.41
					c0,0,2.71-0.11,4.66-3.45l0.42,1.98c0,0,3.47-0.93,4.7-3.09l0.12,1.09C181.4,345.49,196.68,339.41,196.36,338.34z"/>
				<path class="st2" d="M196.18,340.14c0,0,2.9,6.75,3.27,7.23l0.47-0.5c0,0,0.43,2.15,0.66,2.63l0.54-0.58
					c0,0,0.29,2.16,0.72,2.56l0.61-0.65c0,0,0.56,2.01,1.15,2.69l0.47-0.5c0,0,0.48,1.52,1.41,2.26l0.47-0.5
					c0,0,0.56,1.87,1.29,2.82l0.74-0.79c0,0,0.35,1.95,1.35,2.47l0.81-0.86c0,0,0.91,2.07,1.77,2.46l0.61-0.65
					c0,0,0.89,1.37,1.52,1.56l0.67-0.72c0,0,0.96,1.44,1.68,1.97l0.32-0.78l4.5,2.58l-2.6-4.18l0.89-0.52c0,0-1.25-1.57-2.16-1.75
					l0.82-0.58c0,0-0.82-1.44-1.81-1.69l0.89-0.52c0,0-0.75-1.37-2.22-1.54l0.81-0.86c0,0-1.4-1.84-2.71-1.59l0.81-0.72
					c0,0-1.38-1.42-2.92-1.51l0.68-0.58c0,0-1.5-1-2.27-1.05l0.68-0.44c0,0-0.88-1.09-3.04-1.09l1.02-0.8c0,0-0.87-0.95-2.81-0.47
					l0.67-0.86c0,0-1.43-0.93-2.68-0.61l0.4-0.43C203.62,343.05,196.51,339.64,196.18,340.14z"/>
				<path class="st2" d="M196.03,338.93c0,0-6.75,2.9-7.23,3.27l0.5,0.47c0,0-2.15,0.43-2.63,0.66l0.58,0.54
					c0,0-2.16,0.29-2.56,0.72l0.65,0.61c0,0-2.01,0.56-2.69,1.15l0.5,0.47c0,0-1.52,0.48-2.26,1.41l0.5,0.47
					c0,0-1.87,0.56-2.82,1.29l0.79,0.74c0,0-1.95,0.35-2.47,1.35l0.86,0.81c0,0-2.07,0.91-2.46,1.77l0.65,0.61
					c0,0-1.37,0.89-1.56,1.52l0.72,0.67c0,0-1.44,0.96-1.97,1.68l0.78,0.32l-2.58,4.5l4.18-2.6l0.52,0.89c0,0,1.57-1.25,1.75-2.16
					l0.58,0.82c0,0,1.44-0.82,1.69-1.81l0.52,0.89c0,0,1.37-0.75,1.54-2.22l0.86,0.81c0,0,1.84-1.4,1.59-2.71l0.72,0.81
					c0,0,1.42-1.38,1.51-2.92l0.58,0.68c0,0,1-1.5,1.05-2.27l0.44,0.68c0,0,1.09-0.88,1.09-3.04l0.8,1.02c0,0,0.95-0.87,0.47-2.81
					l0.86,0.67c0,0,0.93-1.43,0.61-2.68l0.43,0.4C193.12,346.37,196.53,339.26,196.03,338.93z"/>
			</g>
		</g>
	</g>
</g>
</svg>
