<?xml version="1.0" encoding="utf-8"?>
<!-- Generator: Adobe Illustrator 24.1.0, SVG Export Plug-In . SVG Version: 6.00 Build 0)  -->
<svg version="1.1" xmlns="http://www.w3.org/2000/svg" xmlns:xlink="http://www.w3.org/1999/xlink" x="0px" y="0px"
	 viewBox="0 0 500 500" style="enable-background:new 0 0 500 500;" xml:space="preserve">
<style type="text/css">
	.st0{fill:#46754D;}
	.st1{fill:#FFFFFF;}
</style>
<g id="background">
</g>
<g id="weed">
	<g>
		<ellipse class="st0" cx="250" cy="252.39" rx="237.5" ry="226.39"/>
		<path class="st1" d="M255.24,430.13h-1.29c-1.13,0-2.04-0.91-2.04-2.04V322.11h5.36V428.1
			C257.28,429.22,256.37,430.13,255.24,430.13z"/>
		<path class="st1" d="M254.21,327.85c0,0,22.98-52.1,23.75-56.69h-5.36c0,0,9.96-13.79,11.49-17.62h-6.13
			c0,0,10.73-13.02,10.73-17.62h-6.9c0,0,8.43-13.79,9.19-20.69h-5.36c0,0,6.13-10.73,5.36-19.92h-5.36c0,0,7.66-13.02,9.19-22.22
			h-8.43c0,0,9.19-12.26,6.9-20.69h-9.19c0,0,6.9-16.09,4.6-22.98h-6.9c0,0,3.06-12.26,0.77-16.85h-7.66c0,0,3.06-13.02,2.3-19.92
			l-6.13,2.3l-9.19-39.07l-9.96,36.77l-7.66-2.3c0,0-2.3,15.32,1.53,21.45l-7.66-1.53c0,0-3.83,12.26,0,19.15l-7.66-2.3
			c0,0-3.83,11.49,3.06,20.69h-9.19c0,0-3.06,17.62,5.36,23.75l-8.43-0.77c0,0-0.77,15.32,6.9,24.52l-6.9-0.77
			c0,0,2.3,13.79,6.13,18.39l-6.13-1.53c0,0-1.53,10.73,9.96,22.98l-9.96-1.53c0,0-0.77,9.96,12.26,18.39l-8.43,0.77
			c0,0,2.3,13.02,10.73,18.39h-4.6C231.23,270.4,249.62,328.62,254.21,327.85z"/>
		<path class="st1" d="M254.29,329.39c0,0,49.55-15.46,53.16-17.69l-3.22-3.68c0,0,15.44-1.43,18.99-2.68l-3.68-4.21
			c0,0,15.37-0.45,18.53-3.2l-4.13-4.73c0,0,14.52-2.48,19.71-6.09l-3.22-3.68c0,0,11.04-2.22,16.89-8.26l-3.22-3.68
			c0,0,13.54-2.55,20.77-7.01l-5.05-5.79c0,0,13.93-1.04,18.34-7.67l-5.51-6.31c0,0,15.18-4.91,18.53-10.63l-4.13-4.73
			c0,0,10.25-5.25,12.03-9.58l-4.59-5.26c0,0,10.78-5.71,15.05-10.37l-5.25-2.83l21.31-29.74l-31.22,15.21l-3.02-6.64
			c0,0-11.9,7.61-13.81,13.91l-3.54-6.18c0,0-10.71,4.72-13.15,11.48l-3.02-6.64c0,0-10.19,4.26-12.36,14.51l-5.51-6.31
			c0,0-13.93,8.46-13.09,17.92l-4.53-6.24c0,0-10.98,8.66-12.7,19.43l-3.61-5.19c0,0-8.09,9.85-8.95,15.23l-2.62-5.13
			c0,0-8.28,5.38-9.81,20.62l-4.92-7.76c0,0-7.3,5.45-5.27,19.44l-5.58-5.33c0,0-7.56,9.39-6.19,18.39l-2.76-3.16
			C279.96,279.16,251.01,326.7,254.29,329.39z"/>
		<path class="st1" d="M254.24,326.97c0,0-24-46.02-26.83-49.18l-3.05,3.82c0,0-4.15-14.94-6-18.21l-3.49,4.36
			c0,0-3.16-15.05-6.44-17.67L204.5,255c0,0-5.02-13.85-9.49-18.32l-3.05,3.82c0,0-4.15-10.47-11.13-15.16l-3.05,3.82
			c0,0-4.91-12.87-10.58-19.19l-4.8,6c0,0-3.49-13.52-10.8-16.69l-5.23,6.54c0,0-7.53-14.07-13.74-16.36l-3.93,4.91
			c0,0-6.98-9.16-11.56-10.14l-4.36,5.45c0,0-7.53-9.6-12.87-12.98l-1.85,5.67l-33.05-15.7l20.51,28.03l-6,4.14
			c0,0,9.6,10.36,16.14,11.12l-5.45,4.58c0,0,6.54,9.71,13.63,10.9l-6,4.14c0,0,6,9.27,16.47,9.6l-5.23,6.54
			c0,0,10.8,12.21,19.96,9.7l-5.34,5.56c0,0,10.47,9.27,21.38,9.05l-4.47,4.47c0,0,11.12,6.22,16.58,6.11l-4.58,3.49
			c0,0,6.76,7.2,22.03,6l-6.76,6.22c0,0,6.65,6.22,20.07,1.74l-4.25,6.43c0,0,10.58,5.78,19.19,2.83l-2.62,3.27
			C200.26,310.62,252.17,330.68,254.24,326.97z"/>
		<path class="st1" d="M253.97,330.72c0,0,36.28,18.58,39.55,19.36l0.28-3.68c0,0,9.41,7.58,12.08,8.84l0.31-4.21
			c0,0,8.82,8.07,12.12,8.31l0.35-4.74c0,0,9.48,6.53,14.4,7.42l0.28-3.68c0,0,7.4,4.79,14.05,4.75l0.28-3.68
			c0,0,8.97,5.96,15.5,7.51l0.43-5.79c0,0,8.34,6.97,14.52,5.85l0.47-6.31c0,0,11.22,5.6,16.29,4.39l0.35-4.74
			c0,0,8.66,2.76,12.08,1.43l0.39-5.26c0,0,9.21,2.8,14.21,2.65l-1.34-4.33l28.57-4.22l-25.93-8.81l2.05-5.14c0,0-10.9-2.4-15.5-0.1
			l1.49-5.18c0,0-8.62-3.29-13.77-1.03l2.05-5.14c0,0-8.07-3.25-15.03,0.99l0.47-6.31c0,0-12.51-3.05-17.35,2.41l0.98-5.75
			c0,0-10.98-1.35-17.98,3.42l0.9-4.69c0,0-10.03,0.84-13.54,3.22l1.42-4.13c0,0-7.63-1.63-17.04,5.61l1.61-6.76
			c0,0-7.12-1.06-13.85,7.43L310,314.8c0,0-9.48,0.88-13.77,6.38l0.24-3.16C296.46,318.02,253.65,327.52,253.97,330.72z"/>
		<path class="st1" d="M255.9,328c0,0-38.15-10.19-41.43-10.32l0.36,3.31c0,0-10.36-5.09-13.15-5.74l0.41,3.78
			c0,0-9.87-5.62-13.1-5.27l0.46,4.25c0,0-10.26-4.14-15.15-4.09l0.36,3.31c0,0-7.95-2.96-14.36-1.79l0.36,3.31
			c0,0-9.67-3.73-16.23-3.97l0.57,5.2c0,0-9.23-4.73-15-2.67l0.62,5.67c0,0-11.77-3.02-16.46-1.08l0.46,4.25
			c0,0-8.82-0.95-11.9,0.82l0.51,4.72c0,0-9.36-0.89-14.15,0.1l2.03,3.6l-26.84,8.66l26.51,3.33l-1.1,4.9c0,0,10.92,0.25,14.97-2.58
			l-0.56,4.84c0,0,8.87,1.43,13.46-1.46l-1.1,4.9c0,0,8.33,1.48,14.33-3.47l0.62,5.67c0,0,12.59,0.54,16.33-5.12l0.03,5.26
			c0,0,10.82-0.7,16.76-6.13l-0.08,4.31c0,0,9.54-2.47,12.51-5.18l-0.67,3.9c0,0,7.64,0.13,15.48-7.9l-0.41,6.26
			c0,0,7.05-0.29,12.1-8.96l1.1,5.14c0,0,9-2.41,12.2-8.02l0.31,2.83C217.07,346.57,256.75,330.78,255.9,328z"/>
		<path class="st1" d="M255.44,332.69c0,0,7.54,17.54,8.49,18.78l1.22-1.31c0,0,1.11,5.59,1.7,6.84l1.4-1.5c0,0,0.75,5.6,1.88,6.65
			l1.57-1.68c0,0,1.46,5.21,2.98,6.98l1.22-1.31c0,0,1.23,3.95,3.66,5.87l1.22-1.31c0,0,1.45,4.85,3.35,7.33l1.92-2.06
			c0,0,0.91,5.05,3.5,6.42l2.09-2.24c0,0,2.37,5.37,4.59,6.39l1.57-1.68c0,0,2.31,3.56,3.96,4.05l1.75-1.87c0,0,2.5,3.73,4.36,5.12
			l0.83-2.02l11.68,6.7l-6.75-10.85l2.31-1.34c0,0-3.23-4.07-5.61-4.54l2.12-1.52c0,0-2.13-3.74-4.7-4.39l2.31-1.34
			c0,0-1.95-3.57-5.77-3.99l2.09-2.24c0,0-3.62-4.78-7.05-4.13l2.11-1.88c0,0-3.58-3.7-7.58-3.93l1.76-1.51c0,0-3.91-2.6-5.91-2.72
			l1.77-1.14c0,0-2.28-2.83-7.91-2.83l2.65-2.08c0,0-2.27-2.47-7.3-1.22l1.73-2.23c0,0-3.72-2.42-6.95-1.59l1.05-1.12
			C274.77,340.24,256.3,331.39,255.44,332.69z"/>
		<path class="st1" d="M255.04,329.54c0,0-17.54,7.54-18.78,8.49l1.31,1.22c0,0-5.59,1.11-6.84,1.7l1.5,1.4c0,0-5.6,0.75-6.65,1.88
			l1.68,1.57c0,0-5.21,1.46-6.98,2.98l1.31,1.22c0,0-3.95,1.23-5.87,3.66l1.31,1.22c0,0-4.85,1.45-7.33,3.35l2.06,1.92
			c0,0-5.05,0.91-6.42,3.5l2.24,2.09c0,0-5.37,2.37-6.39,4.59l1.68,1.57c0,0-3.56,2.31-4.05,3.96l1.87,1.75c0,0-3.73,2.5-5.12,4.36
			l2.02,0.83l-6.7,11.68l10.85-6.75l1.34,2.31c0,0,4.07-3.23,4.54-5.61l1.52,2.12c0,0,3.74-2.13,4.39-4.7l1.34,2.31
			c0,0,3.57-1.95,3.99-5.77l2.24,2.09c0,0,4.78-3.62,4.13-7.05l1.88,2.11c0,0,3.7-3.58,3.93-7.58l1.51,1.76c0,0,2.6-3.91,2.72-5.91
			l1.14,1.77c0,0,2.83-2.28,2.83-7.91l2.08,2.65c0,0,2.47-2.27,1.22-7.3l2.23,1.73c0,0,2.42-3.72,1.59-6.95l1.12,1.05
			C247.49,348.86,256.34,330.4,255.04,329.54z"/>
	</g>
</g>
</svg>
