<?xml version="1.0" encoding="utf-8"?>
<!-- Generator: Adobe Illustrator 24.1.0, SVG Export Plug-In . SVG Version: 6.00 Build 0)  -->
<svg version="1.1" xmlns="http://www.w3.org/2000/svg" xmlns:xlink="http://www.w3.org/1999/xlink" x="0px" y="0px"
	 viewBox="0 0 450 450" style="enable-background:new 0 0 450 450;" xml:space="preserve">
<style type="text/css">
	.st0{fill:#ED7220;}
	.st1{fill:#1AA820;}
</style>
<g id="bg">
</g>
<g id="flowercaanabis">
	<g>
		<path class="st0" d="M225,429c-112.39,0-203.88-91.37-204-203.78C20.88,112.73,112.3,21.12,224.79,21c0.07,0,0.15,0,0.22,0
			c112.39,0,203.88,91.37,204,203.78l0,0c0.12,112.48-91.3,204.09-203.78,204.21C225.15,429,225.07,429,225,429z M225,34
			c-0.07,0-0.13,0-0.2,0C119.48,34.11,33.89,119.88,34,225.2C34.11,330.45,119.78,416,225,416c0.07,0,0.13,0,0.2,0
			c105.32-0.11,190.91-85.88,190.8-191.2l0,0C415.89,119.55,330.22,34,225,34z"/>
		<g>
			<path class="st1" d="M223.17,299.48c0,0,16.87-38.23,17.43-41.6h-3.94c0,0,7.31-10.12,8.43-12.93h-4.5c0,0,7.87-9.56,7.87-12.93
				h-5.06c0,0,6.18-10.12,6.75-15.18h-3.94c0,0,4.5-7.87,3.94-14.62h-3.94c0,0,5.62-9.56,6.75-16.3h-6.18c0,0,6.75-9,5.06-15.18
				h-6.75c0,0,5.06-11.81,3.37-16.87h-5.06c0,0,2.25-9,0.56-12.37h-5.62c0,0,2.25-9.56,1.69-14.62l-4.5,1.69l-6.75-28.67
				l-7.31,26.99l-5.62-1.69c0,0-1.69,11.24,1.12,15.74l-5.62-1.12c0,0-2.81,9,0,14.06l-5.62-1.69c0,0-2.81,8.43,2.25,15.18h-6.75
				c0,0-2.25,12.93,3.94,17.43l-6.18-0.56c0,0-0.56,11.24,5.06,17.99l-5.06-0.56c0,0,1.69,10.12,4.5,13.49l-4.5-1.12
				c0,0-1.12,7.87,7.31,16.87l-7.31-1.12c0,0-0.56,7.31,9,13.49l-6.18,0.56c0,0,1.69,9.56,7.87,13.49h-3.37
				C206.3,257.31,219.8,300.04,223.17,299.48z"/>
			<path class="st1" d="M223.23,300.61c0,0,36.36-11.34,39.01-12.98l-2.36-2.7c0,0,11.33-1.05,13.93-1.96l-2.7-3.09
				c0,0,11.28-0.33,13.6-2.35l-3.03-3.47c0,0,10.66-1.82,14.47-4.47l-2.36-2.7c0,0,8.1-1.63,12.39-6.06l-2.36-2.7
				c0,0,9.93-1.87,15.24-5.14l-3.71-4.25c0,0,10.22-0.76,13.45-5.63l-4.05-4.63c0,0,11.14-3.61,13.6-7.8l-3.03-3.47
				c0,0,7.52-3.85,8.83-7.03l-3.37-3.86c0,0,7.91-4.19,11.05-7.61l-3.85-2.08l15.64-21.82l-22.91,11.16l-2.21-4.87
				c0,0-8.73,5.58-10.13,10.21l-2.6-4.53c0,0-7.86,3.46-9.65,8.43l-2.21-4.87c0,0-7.47,3.13-9.07,10.65l-4.05-4.63
				c0,0-10.23,6.21-9.6,13.15l-3.32-4.58c0,0-8.06,6.36-9.32,14.26l-2.65-3.81c0,0-5.94,7.23-6.57,11.18l-1.92-3.76
				c0,0-6.08,3.95-7.2,15.13l-3.61-5.69c0,0-5.35,4-3.87,14.27l-4.09-3.91c0,0-5.55,6.89-4.54,13.49l-2.02-2.32
				C242.06,263.75,220.82,298.63,223.23,300.61z"/>
			<path class="st1" d="M223.19,298.83c0,0-17.61-33.77-19.69-36.09l-2.24,2.8c0,0-3.04-10.96-4.4-13.36l-2.56,3.2
				c0,0-2.32-11.04-4.72-12.96l-2.88,3.6c0,0-3.68-10.16-6.96-13.44l-2.24,2.8c0,0-3.04-7.68-8.16-11.12l-2.24,2.8
				c0,0-3.6-9.44-7.76-14.08l-3.52,4.4c0,0-2.56-9.92-7.92-12.24l-3.84,4.8c0,0-5.52-10.32-10.09-12l-2.88,3.6
				c0,0-5.12-6.72-8.48-7.44l-3.2,4c0,0-5.52-7.04-9.44-9.52l-1.36,4.16L84.33,181.2l15.05,20.57l-4.4,3.04c0,0,7.04,7.6,11.85,8.16
				l-4,3.36c0,0,4.8,7.12,10,8l-4.4,3.04c0,0,4.4,6.8,12.09,7.04l-3.84,4.8c0,0,7.92,8.96,14.65,7.12l-3.92,4.08
				c0,0,7.68,6.8,15.69,6.64l-3.28,3.28c0,0,8.16,4.56,12.17,4.48l-3.36,2.56c0,0,4.96,5.28,16.17,4.4l-4.96,4.56
				c0,0,4.88,4.56,14.73,1.28l-3.12,4.72c0,0,7.76,4.24,14.09,2.08l-1.92,2.4C183.58,286.83,221.67,301.55,223.19,298.83z"/>
			<path class="st1" d="M222.99,301.58c0,0,26.62,13.64,29.02,14.2l0.2-2.7c0,0,6.9,5.56,8.87,6.49l0.23-3.09
				c0,0,6.47,5.92,8.89,6.1l0.26-3.47c0,0,6.96,4.79,10.57,5.45l0.2-2.7c0,0,5.43,3.51,10.31,3.49l0.2-2.7c0,0,6.58,4.37,11.38,5.51
				l0.32-4.25c0,0,6.12,5.12,10.66,4.29l0.35-4.63c0,0,8.23,4.11,11.95,3.22l0.26-3.47c0,0,6.35,2.03,8.86,1.05l0.29-3.86
				c0,0,6.76,2.06,10.42,1.94l-0.98-3.18l20.96-3.09l-19.03-6.47l1.5-3.77c0,0-8-1.76-11.38-0.07l1.1-3.8c0,0-6.32-2.41-10.11-0.75
				l1.5-3.77c0,0-5.92-2.38-11.03,0.73l0.35-4.63c0,0-9.18-2.24-12.73,1.77l0.72-4.22c0,0-8.06-0.99-13.2,2.51l0.66-3.44
				c0,0-7.36,0.61-9.93,2.36l1.04-3.03c0,0-5.6-1.19-12.5,4.11l1.18-4.96c0,0-5.23-0.78-10.16,5.45l-0.09-4.28
				c0,0-6.96,0.64-10.11,4.68l0.17-2.32C254.17,292.26,222.76,299.23,222.99,301.58z"/>
			<path class="st1" d="M224.41,299.59c0,0-27.99-7.48-30.4-7.57l0.26,2.43c0,0-7.6-3.73-9.65-4.21l0.3,2.77
				c0,0-7.24-4.12-9.61-3.87l0.34,3.12c0,0-7.53-3.04-11.12-3l0.26,2.43c0,0-5.83-2.17-10.54-1.31l0.26,2.43
				c0,0-7.09-2.74-11.91-2.91l0.41,3.81c0,0-6.77-3.47-11.01-1.96l0.45,4.16c0,0-8.64-2.22-12.08-0.79l0.34,3.12
				c0,0-6.47-0.7-8.73,0.6l0.38,3.47c0,0-6.87-0.66-10.38,0.08l1.49,2.64l-19.7,6.35l19.45,2.45l-0.81,3.6c0,0,8.01,0.18,10.99-1.9
				l-0.41,3.55c0,0,6.51,1.05,9.88-1.07l-0.81,3.6c0,0,6.11,1.09,10.52-2.55l0.45,4.16c0,0,9.24,0.4,11.98-3.76l0.02,3.86
				c0,0,7.94-0.51,12.3-4.49l-0.06,3.16c0,0,7-1.81,9.18-3.8l-0.49,2.86c0,0,5.61,0.09,11.36-5.8l-0.3,4.59c0,0,5.17-0.21,8.88-6.58
				l0.81,3.77c0,0,6.6-1.77,8.95-5.88l0.23,2.08C195.91,313.21,225.03,301.62,224.41,299.59z"/>
			<path class="st1" d="M224.07,303.03c0,0,5.53,12.87,6.23,13.78l0.9-0.96c0,0,0.82,4.1,1.25,5.02l1.02-1.1
				c0,0,0.55,4.11,1.38,4.88l1.15-1.23c0,0,1.07,3.83,2.19,5.12l0.9-0.96c0,0,0.91,2.9,2.69,4.31l0.9-0.96c0,0,1.06,3.56,2.46,5.38
				l1.41-1.51c0,0,0.67,3.71,2.57,4.71l1.54-1.65c0,0,1.74,3.94,3.37,4.69l1.15-1.23c0,0,1.69,2.61,2.91,2.97l1.28-1.37
				c0,0,1.83,2.74,3.2,3.76l0.61-1.48l8.57,4.92l-4.95-7.96l1.69-0.99c0,0-2.37-2.99-4.12-3.33l1.56-1.11c0,0-1.57-2.75-3.45-3.22
				l1.69-0.99c0,0-1.43-2.62-4.24-2.93l1.54-1.65c0,0-2.66-3.51-5.17-3.03l1.55-1.38c0,0-2.63-2.71-5.57-2.89l1.29-1.11
				c0,0-2.87-1.91-4.33-1.99l1.3-0.84c0,0-1.67-2.08-5.8-2.08l1.94-1.53c0,0-1.66-1.81-5.36-0.89l1.27-1.64c0,0-2.73-1.78-5.1-1.17
				l0.77-0.82C238.26,308.57,224.7,302.07,224.07,303.03z"/>
			<path class="st1" d="M223.78,300.71c0,0-12.87,5.53-13.78,6.23l0.96,0.9c0,0-4.1,0.82-5.02,1.25l1.1,1.02
				c0,0-4.11,0.55-4.88,1.38l1.23,1.15c0,0-3.83,1.07-5.12,2.19l0.96,0.9c0,0-2.9,0.91-4.31,2.69l0.96,0.9c0,0-3.56,1.06-5.38,2.46
				l1.51,1.41c0,0-3.71,0.67-4.71,2.57l1.65,1.54c0,0-3.94,1.74-4.69,3.37l1.23,1.15c0,0-2.61,1.69-2.97,2.91l1.37,1.28
				c0,0-2.74,1.83-3.76,3.2l1.48,0.61l-4.92,8.57l7.96-4.95l0.99,1.69c0,0,2.99-2.37,3.33-4.12l1.11,1.56c0,0,2.75-1.57,3.22-3.45
				l0.99,1.69c0,0,2.62-1.43,2.93-4.24l1.65,1.54c0,0,3.51-2.66,3.03-5.17l1.38,1.55c0,0,2.71-2.63,2.89-5.57l1.11,1.29
				c0,0,1.91-2.87,1.99-4.33l0.84,1.3c0,0,2.08-1.67,2.08-5.8l1.53,1.94c0,0,1.81-1.66,0.89-5.36l1.64,1.27c0,0,1.78-2.73,1.17-5.1
				l0.82,0.77C218.24,314.89,224.73,301.34,223.78,300.71z"/>
		</g>
	</g>
</g>
</svg>
